<?xml version="1.0" encoding="utf-8"?>
<!-- Generator: Adobe Illustrator 26.1.0, SVG Export Plug-In . SVG Version: 6.00 Build 0)  -->
<svg version="1.1" id="Layer_1" xmlns="http://www.w3.org/2000/svg" xmlns:xlink="http://www.w3.org/1999/xlink" x="0px" y="0px"
	 viewBox="0 0 459 459" style="enable-background:new 0 0 459 459;" xml:space="preserve">
<style type="text/css">
	.st0{fill:#8BB7A2;}
	.st1{fill:#FFFFFF;}
</style>
<rect x="132" y="127.5" class="st0" width="195" height="204"/>
<path class="st1" d="M229.5,0C102.8,0,0,102.8,0,229.5S102.8,459,229.5,459S459,356.2,459,229.5S356.2,0,229.5,0z M310.3,239.7
	l-111.8,76.1c-3.8,2.6-8.6,2.8-12.7,0.7c-4-2.1-6.5-6.3-6.5-10.9V153.4c0-4.6,2.5-8.7,6.5-10.9c4-2.1,8.9-1.9,12.7,0.7l111.8,76.1
	c3.4,2.3,5.4,6.1,5.4,10.2S313.7,237.4,310.3,239.7z"/>
</svg>
